<?xml version="1.0" encoding="UTF-8" standalone="no"?>
<svg
   data-name="Layer 1"
   width="692.60517"
   height="748.73305"
   viewBox="0 0 692.60517 748.73305"
   version="1.1"
   id="svg922"
   sodipodi:docname="icon.svg"
   inkscape:version="1.2.2 (b0a8486541, 2022-12-01)"
   xmlns:inkscape="http://www.inkscape.org/namespaces/inkscape"
   xmlns:sodipodi="http://sodipodi.sourceforge.net/DTD/sodipodi-0.dtd"
   xmlns="http://www.w3.org/2000/svg"
   xmlns:svg="http://www.w3.org/2000/svg">
  <defs
     id="defs926" />
  <sodipodi:namedview
     id="namedview924"
     pagecolor="#505050"
     bordercolor="#ffffff"
     borderopacity="1"
     inkscape:showpageshadow="0"
     inkscape:pageopacity="0"
     inkscape:pagecheckerboard="1"
     inkscape:deskcolor="#505050"
     showgrid="false"
     inkscape:zoom="0.55293407"
     inkscape:cx="-30.745076"
     inkscape:cy="412.34573"
     inkscape:window-width="1920"
     inkscape:window-height="1011"
     inkscape:window-x="0"
     inkscape:window-y="0"
     inkscape:window-maximized="1"
     inkscape:current-layer="svg922" />
  <rect
     style="fill:#f2f2f2;fill-opacity:1;stroke-width:4.03484"
     id="rect1138"
     width="650"
     height="650"
     x="21.302582"
     y="49.366516"
     ry="137.21605" />
  <g
     id="g3292"
     transform="translate(1.9505429,10.137681)"
     inkscape:export-filename="icon-512.png"
     inkscape:export-xdpi="75.618462"
     inkscape:export-ydpi="75.618462">
    <circle
       cx="468.6716"
       cy="273.67981"
       r="58.085449"
       fill="#ff6584"
       id="circle872"
       style="stroke-width:0.770718" />
    <path
       d="m 628.00333,316.98788 c 0.12831,-0.0234 0.22442,-0.11284 0.37371,-0.09 a 4.9530151,4.9530151 0 0 0 -0.25465,-0.73537 c -0.1849,0.25203 -0.37351,0.50911 -0.53867,0.73426 z"
       fill="#ffffff"
       id="path874"
       style="stroke-width:0.770718" />
    <path
       d="m 238.41458,411.15701 a 134.98783,134.98783 0 0 0 6.30564,37.31498 c 0.0879,0.28032 0.17992,0.55646 0.27196,0.83685 h 23.53214 c -0.0251,-0.25107 -0.0502,-0.5314 -0.0753,-0.83685 -1.56909,-18.03824 -10.6154,-127.82409 0.20085,-146.59876 -0.94564,1.52307 -32.05961,51.96815 -30.23525,109.2838 z"
       fill="#e6e6e6"
       id="path876"
       style="stroke-width:0.770718" />
    <path
       d="m 240.18029,448.47199 c 0.19668,0.28032 0.40171,0.56069 0.61092,0.83685 h 17.65327 c -0.1339,-0.2385 -0.28872,-0.51883 -0.46859,-0.83685 -2.91641,-5.26377 -11.54845,-21.00066 -19.56129,-37.31498 -8.61116,-17.53194 -16.511,-35.72916 -15.84569,-42.31514 -0.20506,1.48541 -6.16341,46.76715 17.61138,79.63012 z"
       fill="#e6e6e6"
       id="path878"
       style="stroke-width:0.770718" />
    <path
       d="m 423.62272,451.48957 a 117.68427,117.68427 0 0 1 -5.49735,32.53177 c -0.0766,0.24438 -0.15686,0.48514 -0.23709,0.72956 h -20.51569 c 0.0219,-0.21888 0.0439,-0.46328 0.0657,-0.72956 1.36796,-15.72602 9.25467,-111.43898 -0.1751,-127.80703 0.82442,1.32784 27.95002,45.30663 26.35954,95.27526 z"
       fill="#e6e6e6"
       id="path880"
       style="stroke-width:0.770718" />
    <path
       d="m 422.08334,484.02135 c -0.17147,0.24439 -0.35021,0.48879 -0.53261,0.72955 h -15.39039 c 0.11668,-0.20791 0.25171,-0.45231 0.40856,-0.72955 2.5426,-4.58904 10.06813,-18.30872 17.05382,-32.53177 7.50734,-15.2846 14.39453,-31.14922 13.81451,-36.89098 0.17874,1.29497 5.37332,40.7723 -15.35389,69.42275 z"
       fill="#e6e6e6"
       id="path882"
       style="stroke-width:0.770718" />
    <path
       d="m 189.05082,126.2284 9.56731,-7.65202 c -7.43241,-0.81998 -10.48625,3.2335 -11.73606,6.44186 -5.80651,-2.41108 -12.12758,0.74876 -12.12758,0.74876 l 19.14241,6.94938 a 14.48547,14.48547 0 0 0 -4.84608,-6.48798 z"
       fill="#3f3d56"
       id="path884"
       style="stroke-width:0.770718" />
    <path
       d="m 477.21028,86.840616 9.56732,-7.652002 c -7.43242,-0.819999 -10.48626,3.233482 -11.73607,6.441831 -5.80651,-2.411078 -12.12758,0.748764 -12.12758,0.748764 l 19.1424,6.94938 a 14.48544,14.48544 0 0 0 -4.84607,-6.487973 z"
       fill="#3f3d56"
       id="path886"
       style="stroke-width:0.770718" />
    <path
       d="m 617.97574,389.44167 q 0,9.51046 -0.66266,18.86552 a 265.21379,265.21379 0 0 1 -49.26626,136.52537 q -5.64497,7.87832 -11.85432,15.31489 a 267.83576,267.83576 0 0 1 -35.57124,35.33396 l -56.70287,-33.27233 -33.90227,-79.12714 c 0,0 50.58344,-102.41855 187.86964,-100.56145 q 0.0859,3.44832 0.09,6.92118 z"
       fill="#3f3d56"
       id="path888"
       style="stroke-width:0.770718" />
    <path
       d="M 617.31308,408.30719 A 266.72773,266.72773 0 0 1 517.6679,597.87844 l -52.67779,-30.90799 -30.06535,-70.17706 c 0,0 48.71813,-98.63892 182.38832,-88.4862 z"
       fill="#66cc8a"
       id="path890"
       style="stroke-width:0.770718" />
    <path
       d="m 568.04682,544.83254 q -5.64497,7.87834 -11.85433,15.3149 a 266.79909,266.79909 0 0 1 -103.26123,75.9365 q -12.17339,5.01912 -24.9195,8.85191 A 291.97772,291.97772 0 0 1 242.85007,633.17968 267.66409,267.66409 0 0 1 110.3089,503.89454 q -5.5222,-11.60888 -9.9318,-23.80685 c 51.27063,-37.55917 152.29846,-91.34144 262.40717,-39.08088 q 45.68705,21.68392 81.58959,39.53083 c 60.73615,30.10625 101.1587,51.81061 123.67296,64.2949 z"
       fill="#3f3d56"
       id="path892"
       style="stroke-width:0.770718" />
    <path
       d="M 556.19249,560.14742 A 266.88434,266.88434 0 0 1 110.3089,503.89451 c 42.81959,-33.86132 141.58125,-94.71197 249.96378,-43.27773 q 41.80925,19.84311 74.65208,36.17658 c 63.82854,31.63619 103.14668,53.13596 121.26773,63.35406 z"
       fill="#66cc8a"
       id="path894"
       style="stroke-width:0.770718" />
    <path
       d="M 480.61597,622.74066 A 269.40083,269.40083 0 0 1 452.93128,636.08394 265.94777,265.94777 0 0 1 351.27353,656.14389 266.95012,266.95012 0 0 1 138.38628,550.11747 c 63.69763,-6.71662 239.77016,-15.77305 342.22969,72.62319 z"
       fill="#3f3d56"
       id="path896"
       style="stroke-width:0.770718" />
    <path
       d="M 452.93126,636.08394 A 266.99094,266.99094 0 0 1 157.00635,572.17359 c 23.16869,-3.40329 205.06618,-26.77656 295.92491,63.91035 z"
       fill="#66cc8a"
       id="path898"
       style="stroke-width:0.770718" />
    <path
       d="m 573.24176,241.54465 v 0.008 C 382.8033,100.7488 164.61472,199.85405 162.92943,200.61491 v -0.008 a 265.89469,265.89469 0 0 1 188.3441,-77.8675 c 92.58497,-2e-5 174.15,47.18008 221.96823,118.80517 z"
       fill="#e6e6e6"
       id="path900"
       style="stroke-width:0.770718" />
    <ellipse
       cx="105.35748"
       cy="299.02975"
       rx="59.272747"
       ry="120.94035"
       transform="rotate(-10.22048)"
       fill="#3f3d56"
       id="ellipse902"
       style="stroke-width:0.770718" />
    <path
       d="M 186.48308,471.38044 C 184.57319,326.99667 136.26446,191.5014 135.77691,190.15073 l -4.40566,1.58915 c 0.48521,1.34413 48.52882,136.12955 50.42876,279.70403 z"
       fill="#66cc8a"
       id="path904"
       style="stroke-width:0.770718" />
    <rect
       x="-220.3533"
       y="175.65977"
       width="4.6843348"
       height="60.784222"
       transform="rotate(-72.07888)"
       fill="#66cc8a"
       id="rect906"
       style="stroke-width:0.770718" />
    <rect
       x="-54.343212"
       y="329.41254"
       width="60.786339"
       height="4.6843371"
       transform="rotate(-38.378211)"
       fill="#66cc8a"
       id="rect908"
       style="stroke-width:0.77072" />
    <ellipse
       cx="333.11038"
       cy="242.92772"
       rx="64.138611"
       ry="130.86867"
       fill="#3f3d56"
       id="ellipse910"
       style="stroke-width:0.770718" />
    <path
       d="m 327.18749,457.13864 c 25.68819,-154.1242 0.25862,-307.69156 -0.001,-309.22351 l -4.99682,0.8464 c 0.25862,1.52453 25.54217,154.28507 -10e-4,307.54553 z"
       fill="#66cc8a"
       id="path912"
       style="stroke-width:0.770718" />
    <rect
       x="-63.985809"
       y="345.24368"
       width="5.0688848"
       height="65.77417"
       transform="rotate(-61.858401)"
       fill="#66cc8a"
       id="rect914"
       style="stroke-width:0.770718" />
    <rect
       x="172.42714"
       y="388.74414"
       width="65.776428"
       height="5.0688848"
       transform="rotate(-28.157959)"
       fill="#66cc8a"
       id="rect916"
       style="stroke-width:0.770718" />
    <path
       d="M 611.70907,331.69982 A 488.94956,488.94956 0 0 0 538.20231,298.09204 C 397.82372,247.29595 258.62314,266.87319 204.13737,339.57 246.53976,250.5111 397.84009,222.50739 550.52296,277.75399 a 498.59774,498.59774 0 0 1 52.08876,22.25246 264.77393,264.77393 0 0 1 9.09735,31.69337 z"
       fill="#e6e6e6"
       id="path918"
       style="stroke-width:0.770718" />
    <path
       d="m 422.11852,188.38669 9.5673,-7.65203 c -7.43242,-0.81998 -10.48626,3.23349 -11.73607,6.44186 -5.80651,-2.41108 -12.12758,0.74875 -12.12758,0.74875 l 19.14241,6.9494 a 14.485486,14.485486 0 0 0 -4.84606,-6.48798 z"
       fill="#3f3d56"
       id="path920"
       style="stroke-width:0.770718" />
  </g>
</svg>
